<svg xmlns="http://www.w3.org/2000/svg" viewBox="0 0 512 512">
  <!-- 背景の円 -->
  <circle cx="256" cy="256" r="240" fill="#4A90E2"/>
  
  <!-- クエスチョンマーク -->
  <path d="M256 380 A20 20 0 1 1 256 420 A20 20 0 1 1 256 380 Z" fill="white"/>
  <path d="M256 150
           C290 150 320 180 320 220
           C320 250 300 270 280 290
           C260 310 256 330 256 340
           L256 360
           M256 150
           C222 150 192 180 192 220
           C192 250 212 270 232 290
           C252 310 256 330 256 340" 
        stroke="white" 
        stroke-width="40" 
        stroke-linecap="round"
        fill="none"/>
</svg>
